<svg viewBox="0 0 2942 2942" fill="none" xmlns="http://www.w3.org/2000/svg">
<rect width="2942" height="2942" fill="white"/>
<path d="M362.396 1805.94H316.019L281.741 1974.59H219.522L253.8 1805.94H208L213.185 1783.02H367.292L362.396 1805.94Z" fill="#063314"/>
<path d="M537.729 1828.57C537.729 1840.44 534.56 1851.4 528.223 1861.45C521.886 1871.51 511.42 1879.15 496.826 1884.38L530.24 1974.59H466.004L440.656 1891.02H437.487L420.492 1974.59H358.273L397.16 1783.02H472.917C481.751 1783.02 490.104 1783.62 497.978 1784.83C505.851 1785.83 512.668 1788.04 518.429 1791.46C524.382 1794.68 529.087 1799.31 532.544 1805.34C536.001 1811.17 537.729 1818.92 537.729 1828.57ZM454.77 1871.71C459.763 1871.71 463.988 1870 467.444 1866.58C471.093 1862.96 473.973 1858.64 476.086 1853.61C478.39 1848.58 480.023 1843.25 480.983 1837.62C481.943 1831.79 482.423 1826.76 482.423 1822.54C482.423 1817.31 481.559 1812.88 479.831 1809.26C478.102 1805.44 474.358 1803.53 468.597 1803.53H455.634L441.232 1871.71H454.77Z" fill="#063314"/>
<path d="M711.658 1974.59H644.254L640.221 1926.62H586.932L566.48 1974.59H538.539L623.514 1783.02H691.782L711.658 1974.59ZM596.437 1904.6H638.205L631.58 1822.54L596.437 1904.6Z" fill="#063314"/>
<path d="M890.412 1974.59H823.008L791.034 1836.11L762.805 1974.59H736.88L775.767 1783.02H844.612L874.857 1923.3L903.374 1783.02H929.875L890.412 1974.59Z" fill="#063314"/>
<path d="M1047.27 1838.53C1047.85 1835.51 1048.14 1831.39 1048.14 1826.16C1048.14 1823.14 1047.94 1820.22 1047.56 1817.41C1047.18 1814.39 1046.5 1811.78 1045.54 1809.57C1044.58 1807.15 1043.14 1805.34 1041.22 1804.13C1039.3 1802.73 1036.81 1802.02 1033.73 1802.02C1030.28 1802.02 1027.11 1802.83 1024.23 1804.44C1021.35 1806.05 1018.75 1808.16 1016.45 1810.77C1014.34 1813.19 1012.61 1816.1 1011.27 1819.52C1010.11 1822.74 1009.54 1826.16 1009.54 1829.78C1009.54 1835.01 1010.78 1839.03 1013.28 1841.85C1015.97 1844.66 1019.43 1846.97 1023.65 1848.78C1027.88 1850.59 1032.68 1852.1 1038.05 1853.31C1043.43 1854.52 1049 1855.92 1054.76 1857.53C1059.56 1858.94 1064.36 1860.75 1069.16 1862.96C1073.96 1865.18 1078.19 1868.19 1081.84 1872.01C1085.68 1875.63 1088.75 1880.46 1091.06 1886.49C1093.36 1892.33 1094.51 1899.67 1094.51 1908.52C1094.51 1921.19 1092.11 1931.85 1087.31 1940.5C1082.51 1949.14 1075.88 1956.18 1067.44 1961.61C1058.99 1967.04 1048.9 1970.97 1037.19 1973.38C1025.67 1975.79 1013.09 1977 999.455 1977C985.629 1977 974.298 1976.09 965.465 1974.28C956.823 1972.27 950.006 1970.16 945.013 1967.95C939.06 1965.33 934.643 1962.32 931.763 1958.9L941.557 1917.57H992.254C992.062 1919.38 991.87 1921.89 991.678 1925.11C991.486 1928.13 991.39 1930.54 991.39 1932.35C991.39 1934.76 991.678 1937.28 992.254 1939.89C992.83 1942.51 993.694 1944.92 994.846 1947.13C996.19 1949.35 998.015 1951.16 1000.32 1952.56C1002.62 1953.97 1005.5 1954.68 1008.96 1954.68C1012.8 1954.68 1016.16 1953.77 1019.04 1951.96C1022.12 1950.15 1024.61 1947.94 1026.53 1945.32C1028.64 1942.51 1030.18 1939.49 1031.14 1936.27C1032.29 1932.85 1032.87 1929.53 1032.87 1926.32C1032.87 1921.89 1031.81 1918.17 1029.7 1915.15C1027.78 1912.14 1025.09 1909.62 1021.63 1907.61C1018.18 1905.4 1014.15 1903.59 1009.54 1902.18C1005.12 1900.57 1000.51 1898.96 995.71 1897.36C991.101 1895.95 986.205 1894.24 981.02 1892.23C976.027 1890.22 971.418 1887.4 967.193 1883.78C962.968 1880.16 959.416 1875.63 956.535 1870.2C953.847 1864.57 952.503 1857.43 952.503 1848.78C952.503 1835.91 955.575 1825.15 961.72 1816.5C968.057 1807.65 975.931 1800.51 985.34 1795.08C994.942 1789.65 1005.41 1785.83 1016.74 1783.62C1028.07 1781.21 1038.82 1780 1049 1780C1062.44 1780 1073.96 1781.71 1083.57 1785.13C1093.36 1788.35 1100.75 1792.17 1105.75 1796.59L1095.09 1838.53H1047.27Z" fill="#063314"/>
<path d="M1335.26 1974.59H1267.85L1263.82 1926.62H1210.53L1190.08 1974.59H1162.14L1247.11 1783.02H1315.38L1335.26 1974.59ZM1220.03 1904.6H1261.8L1255.18 1822.54L1220.03 1904.6Z" fill="#063314"/>
<path d="M1571.91 1974.59H1507.96L1534.46 1844.26L1466.19 1974.59H1427.02L1414.06 1839.73L1386.4 1974.59H1360.48L1399.36 1783.02H1472.82L1481.75 1891.02L1537.05 1783.02H1611.08L1571.91 1974.59Z" fill="#063314"/>
<path d="M1791.62 1826.76C1791.62 1832.59 1790.75 1837.82 1789.03 1842.45C1787.49 1847.07 1785.28 1851.2 1782.4 1854.82C1779.52 1858.44 1776.16 1861.66 1772.32 1864.47C1768.48 1867.29 1764.25 1869.9 1759.65 1872.32C1761.76 1873.12 1764.25 1874.43 1767.13 1876.24C1770.02 1877.85 1772.8 1880.16 1775.49 1883.18C1778.18 1886.19 1780.38 1890.11 1782.11 1894.94C1784.03 1899.57 1784.99 1905.3 1784.99 1912.14C1784.99 1921.19 1783.17 1929.53 1779.52 1937.18C1775.87 1944.82 1770.4 1951.46 1763.1 1957.09C1756 1962.52 1747.16 1966.84 1736.6 1970.06C1726.23 1973.08 1714.23 1974.59 1700.59 1974.59H1615.04L1653.93 1783.02H1729.69C1737.18 1783.02 1744.57 1783.62 1751.87 1784.83C1759.36 1785.83 1765.98 1787.94 1771.74 1791.16C1777.7 1794.38 1782.5 1798.91 1786.15 1804.74C1789.79 1810.37 1791.62 1817.71 1791.62 1826.76ZM1713.27 1863.26C1717.49 1863.26 1721.05 1861.96 1723.93 1859.34C1727 1856.73 1729.5 1853.51 1731.42 1849.69C1733.34 1845.67 1734.78 1841.44 1735.74 1837.02C1736.7 1832.39 1737.18 1828.27 1737.18 1824.65C1737.18 1818.82 1735.83 1813.89 1733.14 1809.87C1730.65 1805.64 1726.62 1803.53 1721.05 1803.53H1712.4L1700.02 1863.26H1713.27ZM1692.53 1955.58C1698.29 1955.58 1703.09 1953.87 1706.93 1950.45C1710.77 1947.03 1713.94 1942.81 1716.44 1937.78C1718.93 1932.75 1720.66 1927.52 1721.62 1922.09C1722.77 1916.46 1723.35 1911.53 1723.35 1907.31C1723.35 1900.27 1721.91 1894.74 1719.03 1890.72C1716.34 1886.49 1711.92 1884.38 1705.78 1884.38H1695.12L1681.01 1955.58H1692.53Z" fill="#063314"/>
<path d="M1867.97 1974.59H1805.75L1844.64 1783.02H1907.15L1867.97 1974.59Z" fill="#063314"/>
<path d="M1950.12 1783.02H2071.39L2066.78 1805.94H2008.02L1995.92 1864.17H2045.17L2040.56 1886.8H1991.31L1978.06 1951.36H2036.82L2032.5 1974.59H1911.23L1950.12 1783.02Z" fill="#063314"/>
<path d="M2221.15 1974.59H2153.75L2121.78 1836.11L2093.55 1974.59H2067.62L2106.51 1783.02H2175.35L2205.6 1923.3L2234.12 1783.02H2260.62L2221.15 1974.59Z" fill="#063314"/>
<path d="M2439.94 1805.94H2393.57L2359.29 1974.59H2297.07L2331.35 1805.94H2285.55L2290.73 1783.02H2444.84L2439.94 1805.94Z" fill="#063314"/>
<path d="M2581.9 1974.59H2514.5L2510.46 1926.62H2457.17L2436.72 1974.59H2408.78L2493.76 1783.02H2562.02L2581.9 1974.59ZM2466.68 1904.6H2508.45L2501.82 1822.54L2466.68 1904.6Z" fill="#063314"/>
<path d="M2646.01 1783.02H2708.52L2674.53 1949.25H2733L2728.1 1974.59H2607.12L2646.01 1783.02Z" fill="#063314"/>
<path d="M1311.22 2084.53C1311.22 2089.18 1310.31 2093.18 1308.5 2096.53C1306.71 2099.89 1304.2 2102.47 1300.97 2104.28C1297.76 2106.09 1294.03 2107 1289.78 2107H1273.31V2062.97H1287.88C1295.33 2062.97 1301.08 2064.84 1305.12 2068.59C1309.19 2072.32 1311.22 2077.64 1311.22 2084.53ZM1305.22 2084.53C1305.22 2079.07 1303.72 2074.92 1300.72 2072.06C1297.74 2069.19 1293.42 2067.75 1287.75 2067.75H1279.28V2102.22H1289.09C1292.36 2102.22 1295.2 2101.5 1297.59 2100.06C1300.01 2098.62 1301.89 2096.58 1303.22 2093.94C1304.55 2091.29 1305.22 2088.16 1305.22 2084.53Z" fill="black"/>
<path d="M1354.25 2102.12V2107H1319.56V2062.97H1352.97V2067.84H1325.53V2081.97H1351.09V2086.78H1325.53V2102.12H1354.25Z" fill="black"/>
<path d="M1396.75 2094.84C1396.75 2098.91 1395.16 2102.05 1391.97 2104.28C1388.8 2106.51 1384.33 2107.62 1378.56 2107.62C1367.83 2107.62 1361.61 2103.9 1359.91 2096.44L1365.69 2095.28C1366.35 2097.93 1367.77 2099.88 1369.94 2101.12C1372.1 2102.35 1375.05 2102.97 1378.78 2102.97C1382.64 2102.97 1385.6 2102.31 1387.69 2101C1389.79 2099.67 1390.84 2097.72 1390.84 2095.16C1390.84 2093.72 1390.51 2092.55 1389.84 2091.66C1389.2 2090.76 1388.28 2090.02 1387.09 2089.44C1385.91 2088.85 1384.49 2088.36 1382.84 2087.97C1381.2 2087.57 1379.38 2087.15 1377.38 2086.69C1375.06 2086.17 1373.12 2085.66 1371.56 2085.16C1370.02 2084.66 1368.75 2084.14 1367.75 2083.59C1366.75 2083.03 1365.9 2082.44 1365.19 2081.81C1364.15 2080.85 1363.34 2079.74 1362.78 2078.47C1362.24 2077.2 1361.97 2075.74 1361.97 2074.09C1361.97 2070.32 1363.41 2067.42 1366.28 2065.38C1369.18 2063.33 1373.31 2062.31 1378.69 2062.31C1383.69 2062.31 1387.51 2063.08 1390.16 2064.62C1392.8 2066.15 1394.66 2068.75 1395.72 2072.44L1389.84 2073.47C1389.2 2071.14 1387.97 2069.45 1386.16 2068.41C1384.34 2067.34 1381.83 2066.81 1378.62 2066.81C1375.1 2066.81 1372.42 2067.4 1370.56 2068.56C1368.71 2069.73 1367.78 2071.47 1367.78 2073.78C1367.78 2075.14 1368.14 2076.26 1368.84 2077.16C1369.57 2078.03 1370.61 2078.77 1371.97 2079.38C1373.24 2079.98 1375.94 2080.74 1380.06 2081.66C1381.75 2082.05 1383.42 2082.47 1385.06 2082.91C1386.71 2083.32 1388.26 2083.85 1389.72 2084.5C1390.57 2084.85 1391.39 2085.29 1392.16 2085.81C1392.95 2086.31 1393.64 2086.9 1394.22 2087.56C1395.01 2088.44 1395.62 2089.47 1396.06 2090.66C1396.52 2091.84 1396.75 2093.24 1396.75 2094.84Z" fill="black"/>
<path d="M1442.84 2084.53C1442.84 2089.18 1441.94 2093.18 1440.12 2096.53C1438.33 2099.89 1435.82 2102.47 1432.59 2104.28C1429.39 2106.09 1425.66 2107 1421.41 2107H1404.94V2062.97H1419.5C1426.96 2062.97 1432.71 2064.84 1436.75 2068.59C1440.81 2072.32 1442.84 2077.64 1442.84 2084.53ZM1436.84 2084.53C1436.84 2079.07 1435.34 2074.92 1432.34 2072.06C1429.36 2069.19 1425.04 2067.75 1419.38 2067.75H1410.91V2102.22H1420.72C1423.99 2102.22 1426.82 2101.5 1429.22 2100.06C1431.64 2098.62 1433.51 2096.58 1434.84 2093.94C1436.18 2091.29 1436.84 2088.16 1436.84 2084.53Z" fill="black"/>
<path d="M1485.88 2102.12V2107H1451.19V2062.97H1484.59V2067.84H1457.16V2081.97H1482.72V2086.78H1457.16V2102.12H1485.88Z" fill="black"/>
<path d="M1538.81 2102.22V2107H1509.66V2103.03C1510.72 2100.59 1512 2098.44 1513.5 2096.56C1515.02 2094.69 1516.64 2093 1518.34 2091.5C1520.05 2090 1521.74 2088.6 1523.41 2087.31C1524.24 2086.67 1525.02 2086.02 1525.75 2085.38C1526.5 2084.73 1527.21 2084.08 1527.88 2083.44C1529.21 2082.15 1530.28 2080.79 1531.09 2079.38C1531.93 2077.96 1532.34 2076.35 1532.34 2074.56C1532.34 2072.15 1531.64 2070.27 1530.22 2068.94C1528.8 2067.6 1526.83 2066.94 1524.31 2066.94C1521.92 2066.94 1519.94 2067.59 1518.38 2068.91C1516.83 2070.2 1515.93 2072.02 1515.66 2074.38L1509.91 2073.84C1510.32 2070.32 1511.81 2067.52 1514.38 2065.44C1516.96 2063.35 1520.27 2062.31 1524.31 2062.31C1528.75 2062.31 1532.16 2063.36 1534.53 2065.47C1536.93 2067.55 1538.12 2070.52 1538.12 2074.38C1538.12 2076.08 1537.73 2077.78 1536.94 2079.47C1536.17 2081.16 1535.01 2082.84 1533.47 2084.53C1532.7 2085.36 1531.57 2086.44 1530.09 2087.75C1528.61 2089.06 1526.79 2090.6 1524.62 2092.38C1522.23 2094.33 1520.32 2096.1 1518.91 2097.69C1517.49 2099.25 1516.47 2100.76 1515.84 2102.22H1538.81Z" fill="black"/>
<path d="M1575.16 2084.97C1575.16 2092.32 1573.85 2097.94 1571.25 2101.81C1568.67 2105.69 1564.84 2107.62 1559.78 2107.62C1554.72 2107.62 1550.92 2105.7 1548.38 2101.84C1545.83 2097.99 1544.56 2092.36 1544.56 2084.97C1544.56 2077.41 1545.79 2071.74 1548.25 2067.97C1550.73 2064.2 1554.64 2062.31 1559.97 2062.31C1565.16 2062.31 1568.98 2064.22 1571.44 2068.03C1573.92 2071.84 1575.16 2077.49 1575.16 2084.97ZM1569.44 2084.97C1569.44 2080.72 1569.11 2077.27 1568.47 2074.62C1567.84 2071.96 1566.83 2070 1565.44 2068.75C1564.04 2067.5 1562.22 2066.88 1559.97 2066.88C1557.68 2066.88 1555.81 2067.49 1554.38 2068.72C1552.94 2069.95 1551.89 2071.9 1551.22 2074.56C1550.57 2077.21 1550.25 2080.68 1550.25 2084.97C1550.25 2089.14 1550.58 2092.55 1551.25 2095.22C1551.94 2097.89 1552.99 2099.85 1554.41 2101.12C1555.82 2102.4 1557.64 2103.03 1559.84 2103.03C1563.16 2103.03 1565.58 2101.55 1567.12 2098.59C1568.67 2095.64 1569.44 2091.09 1569.44 2084.97Z" fill="black"/>
<path d="M1610.78 2084.97C1610.78 2092.32 1609.48 2097.94 1606.88 2101.81C1604.29 2105.69 1600.47 2107.62 1595.41 2107.62C1590.34 2107.62 1586.54 2105.7 1584 2101.84C1581.46 2097.99 1580.19 2092.36 1580.19 2084.97C1580.19 2077.41 1581.42 2071.74 1583.88 2067.97C1586.35 2064.2 1590.26 2062.31 1595.59 2062.31C1600.78 2062.31 1604.6 2064.22 1607.06 2068.03C1609.54 2071.84 1610.78 2077.49 1610.78 2084.97ZM1605.06 2084.97C1605.06 2080.72 1604.74 2077.27 1604.09 2074.62C1603.47 2071.96 1602.46 2070 1601.06 2068.75C1599.67 2067.5 1597.84 2066.88 1595.59 2066.88C1593.3 2066.88 1591.44 2067.49 1590 2068.72C1588.56 2069.95 1587.51 2071.9 1586.84 2074.56C1586.2 2077.21 1585.88 2080.68 1585.88 2084.97C1585.88 2089.14 1586.21 2092.55 1586.88 2095.22C1587.56 2097.89 1588.61 2099.85 1590.03 2101.12C1591.45 2102.4 1593.26 2103.03 1595.47 2103.03C1598.78 2103.03 1601.21 2101.55 1602.75 2098.59C1604.29 2095.64 1605.06 2091.09 1605.06 2084.97Z" fill="black"/>
<path d="M1645.88 2084.09C1645.88 2091.66 1644.49 2097.47 1641.72 2101.53C1638.97 2105.59 1635.04 2107.62 1629.94 2107.62C1626.5 2107.62 1623.74 2106.91 1621.66 2105.47C1619.59 2104.01 1618.11 2101.67 1617.22 2098.44L1622.59 2097.59C1623.72 2101.26 1626.2 2103.09 1630.03 2103.09C1633.26 2103.09 1635.76 2101.59 1637.53 2098.59C1639.3 2095.59 1640.23 2091.31 1640.31 2085.75C1639.48 2087.62 1638.05 2089.14 1636.03 2090.28C1634.01 2091.41 1631.79 2091.97 1629.38 2091.97C1626.75 2091.97 1624.46 2091.35 1622.5 2090.12C1620.54 2088.9 1619.02 2087.17 1617.94 2084.94C1616.85 2082.71 1616.31 2080.1 1616.31 2077.12C1616.31 2072.52 1617.6 2068.91 1620.19 2066.28C1622.77 2063.64 1626.36 2062.31 1630.97 2062.31C1635.86 2062.31 1639.57 2064.12 1642.09 2067.75C1644.61 2071.38 1645.88 2076.82 1645.88 2084.09ZM1639.75 2078.66C1639.75 2075.11 1638.94 2072.27 1637.31 2070.12C1635.69 2067.96 1633.51 2066.88 1630.78 2066.88C1628.07 2066.88 1625.94 2067.8 1624.38 2069.66C1622.81 2071.49 1622.03 2073.98 1622.03 2077.12C1622.03 2080.33 1622.81 2082.88 1624.38 2084.75C1625.94 2086.6 1628.05 2087.53 1630.72 2087.53C1632.34 2087.53 1633.83 2087.16 1635.19 2086.41C1636.56 2085.66 1637.67 2084.61 1638.5 2083.28C1639.33 2081.93 1639.75 2080.39 1639.75 2078.66Z" fill="black"/>
<path d="M1082.12 2178.12V2183H1047.44V2138.97H1080.84V2143.84H1053.41V2157.97H1078.97V2162.78H1053.41V2178.12H1082.12Z" fill="black"/>
<path d="M1109.88 2178.72C1116.04 2178.72 1120.68 2175.67 1123.78 2169.56L1128.66 2172C1126.84 2175.79 1124.29 2178.68 1121 2180.66C1117.73 2182.64 1113.93 2183.62 1109.59 2183.62C1105.14 2183.62 1101.3 2182.7 1098.09 2180.84C1094.89 2178.99 1092.42 2176.35 1090.69 2172.94C1088.98 2169.5 1088.12 2165.45 1088.12 2160.78C1088.12 2156.09 1088.98 2152.07 1090.69 2148.72C1092.4 2145.36 1094.85 2142.79 1098.06 2141C1101.27 2139.21 1105.1 2138.31 1109.56 2138.31C1114.25 2138.31 1118.17 2139.23 1121.31 2141.06C1124.46 2142.9 1126.77 2145.61 1128.25 2149.22L1122.59 2151.09C1121.57 2148.53 1119.93 2146.57 1117.66 2145.22C1115.41 2143.86 1112.73 2143.19 1109.62 2143.19C1104.75 2143.19 1100.96 2144.76 1098.25 2147.91C1095.54 2151.03 1094.19 2155.32 1094.19 2160.78C1094.19 2164.36 1094.82 2167.51 1096.09 2170.22C1097.39 2172.91 1099.2 2175 1101.53 2176.5C1103.89 2177.98 1106.67 2178.72 1109.88 2178.72Z" fill="black"/>
<path d="M1177.84 2160.78C1177.84 2165.49 1176.95 2169.55 1175.16 2172.97C1173.39 2176.39 1170.86 2179.02 1167.59 2180.88C1164.32 2182.71 1160.45 2183.62 1155.97 2183.62C1151.47 2183.62 1147.58 2182.71 1144.31 2180.88C1141.06 2179.04 1138.55 2176.42 1136.78 2173C1135.03 2169.58 1134.16 2165.51 1134.16 2160.78C1134.16 2156.07 1135.02 2152.05 1136.75 2148.72C1138.5 2145.36 1141 2142.79 1144.25 2141C1147.52 2139.21 1151.45 2138.31 1156.03 2138.31C1160.53 2138.31 1164.41 2139.2 1167.66 2140.97C1170.93 2142.74 1173.44 2145.3 1175.19 2148.66C1176.96 2151.99 1177.84 2156.03 1177.84 2160.78ZM1171.75 2160.78C1171.75 2155.3 1170.38 2151 1167.62 2147.88C1164.9 2144.75 1161.03 2143.19 1156.03 2143.19C1150.99 2143.19 1147.09 2144.73 1144.34 2147.81C1141.59 2150.9 1140.22 2155.22 1140.22 2160.78C1140.22 2164.45 1140.84 2167.64 1142.09 2170.34C1143.34 2173.03 1145.15 2175.11 1147.5 2176.59C1149.85 2178.05 1152.68 2178.78 1155.97 2178.78C1161.05 2178.78 1164.95 2177.22 1167.66 2174.09C1170.39 2170.95 1171.75 2166.51 1171.75 2160.78Z" fill="black"/>
<path d="M1214.41 2178.12V2183H1186.19V2138.97H1192.16V2178.12H1214.41Z" fill="black"/>
<path d="M1263.28 2160.78C1263.28 2165.49 1262.39 2169.55 1260.59 2172.97C1258.82 2176.39 1256.3 2179.02 1253.03 2180.88C1249.76 2182.71 1245.89 2183.62 1241.41 2183.62C1236.91 2183.62 1233.02 2182.71 1229.75 2180.88C1226.5 2179.04 1223.99 2176.42 1222.22 2173C1220.47 2169.58 1219.59 2165.51 1219.59 2160.78C1219.59 2156.07 1220.46 2152.05 1222.19 2148.72C1223.94 2145.36 1226.44 2142.79 1229.69 2141C1232.96 2139.21 1236.89 2138.31 1241.47 2138.31C1245.97 2138.31 1249.84 2139.2 1253.09 2140.97C1256.36 2142.74 1258.88 2145.3 1260.62 2148.66C1262.4 2151.99 1263.28 2156.03 1263.28 2160.78ZM1257.19 2160.78C1257.19 2155.3 1255.81 2151 1253.06 2147.88C1250.33 2144.75 1246.47 2143.19 1241.47 2143.19C1236.43 2143.19 1232.53 2144.73 1229.78 2147.81C1227.03 2150.9 1225.66 2155.22 1225.66 2160.78C1225.66 2164.45 1226.28 2167.64 1227.53 2170.34C1228.78 2173.03 1230.58 2175.11 1232.94 2176.59C1235.29 2178.05 1238.11 2178.78 1241.41 2178.78C1246.49 2178.78 1250.39 2177.22 1253.09 2174.09C1255.82 2170.95 1257.19 2166.51 1257.19 2160.78Z" fill="black"/>
<path d="M1291.78 2178.78C1294.66 2178.78 1297.33 2178.34 1299.81 2177.47C1302.31 2176.59 1304.33 2175.41 1305.88 2173.91V2165.97H1292.72V2160.97H1311.38V2176.16C1309.04 2178.53 1306.18 2180.38 1302.78 2181.69C1299.41 2182.98 1295.74 2183.62 1291.78 2183.62C1287.2 2183.62 1283.25 2182.7 1279.94 2180.84C1276.62 2178.99 1274.07 2176.35 1272.28 2172.94C1270.49 2169.5 1269.59 2165.45 1269.59 2160.78C1269.59 2153.64 1271.51 2148.1 1275.34 2144.19C1279.18 2140.27 1284.56 2138.31 1291.5 2138.31C1296.38 2138.31 1300.33 2139.14 1303.38 2140.78C1306.42 2142.43 1308.76 2145.06 1310.41 2148.69L1304.72 2150.38C1303.47 2147.88 1301.74 2146.05 1299.53 2144.91C1297.34 2143.76 1294.61 2143.19 1291.34 2143.19C1286.26 2143.19 1282.38 2144.73 1279.69 2147.81C1277 2150.88 1275.66 2155.2 1275.66 2160.78C1275.66 2166.34 1277.08 2170.74 1279.94 2173.97C1282.79 2177.18 1286.74 2178.78 1291.78 2178.78Z" fill="black"/>
<path d="M1328.06 2138.97V2183H1322.09V2138.97H1328.06Z" fill="black"/>
<path d="M1345.38 2170.12L1340.31 2183H1334.12L1352.09 2138.97H1358.88L1376.56 2183H1370.47L1365.44 2170.12H1345.38ZM1355.41 2143.47C1355.05 2144.64 1354.62 2145.94 1354.12 2147.38C1353.65 2148.79 1353.2 2150.04 1352.78 2151.12L1347.19 2165.47H1363.66L1358 2150.94C1357.71 2150.21 1357.32 2149.18 1356.84 2147.84C1356.36 2146.51 1355.89 2145.05 1355.41 2143.47Z" fill="black"/>
<path d="M1430.88 2178.12V2183H1396.19V2138.97H1429.59V2143.84H1402.16V2157.97H1427.72V2162.78H1402.16V2178.12H1430.88Z" fill="black"/>
<path d="M1462.66 2164.72V2183H1456.69V2138.97H1477.41C1482.36 2138.97 1486.19 2140.08 1488.88 2142.31C1491.58 2144.52 1492.94 2147.6 1492.94 2151.56C1492.94 2154.83 1491.98 2157.58 1490.06 2159.81C1488.17 2162.04 1485.54 2163.45 1482.19 2164.03L1494.69 2183H1487.81L1476.38 2164.72H1462.66ZM1486.94 2151.62C1486.94 2149.06 1486.06 2147.11 1484.31 2145.78C1482.58 2144.43 1480.08 2143.75 1476.81 2143.75H1462.66V2160H1477.06C1480.21 2160 1482.64 2159.27 1484.34 2157.81C1486.07 2156.33 1486.94 2154.27 1486.94 2151.62Z" fill="black"/>
<path d="M1537.62 2178.12V2183H1502.94V2138.97H1536.34V2143.84H1508.91V2157.97H1534.47V2162.78H1508.91V2178.12H1537.62Z" fill="black"/>
<path d="M1565.38 2178.72C1571.54 2178.72 1576.18 2175.67 1579.28 2169.56L1584.16 2172C1582.34 2175.79 1579.79 2178.68 1576.5 2180.66C1573.23 2182.64 1569.43 2183.62 1565.09 2183.62C1560.64 2183.62 1556.8 2182.7 1553.59 2180.84C1550.39 2178.99 1547.92 2176.35 1546.19 2172.94C1544.48 2169.5 1543.62 2165.45 1543.62 2160.78C1543.62 2156.09 1544.48 2152.07 1546.19 2148.72C1547.9 2145.36 1550.35 2142.79 1553.56 2141C1556.77 2139.21 1560.6 2138.31 1565.06 2138.31C1569.75 2138.31 1573.67 2139.23 1576.81 2141.06C1579.96 2142.9 1582.27 2145.61 1583.75 2149.22L1578.09 2151.09C1577.07 2148.53 1575.43 2146.57 1573.16 2145.22C1570.91 2143.86 1568.23 2143.19 1565.12 2143.19C1560.25 2143.19 1556.46 2144.76 1553.75 2147.91C1551.04 2151.03 1549.69 2155.32 1549.69 2160.78C1549.69 2164.36 1550.32 2167.51 1551.59 2170.22C1552.89 2172.91 1554.7 2175 1557.03 2176.5C1559.39 2177.98 1562.17 2178.72 1565.38 2178.72Z" fill="black"/>
<path d="M1598.5 2138.97V2183H1592.53V2138.97H1598.5Z" fill="black"/>
<path d="M1629.44 2178.72C1635.6 2178.72 1640.24 2175.67 1643.34 2169.56L1648.22 2172C1646.41 2175.79 1643.85 2178.68 1640.56 2180.66C1637.29 2182.64 1633.49 2183.62 1629.16 2183.62C1624.7 2183.62 1620.86 2182.7 1617.66 2180.84C1614.45 2178.99 1611.98 2176.35 1610.25 2172.94C1608.54 2169.5 1607.69 2165.45 1607.69 2160.78C1607.69 2156.09 1608.54 2152.07 1610.25 2148.72C1611.96 2145.36 1614.42 2142.79 1617.62 2141C1620.83 2139.21 1624.67 2138.31 1629.12 2138.31C1633.81 2138.31 1637.73 2139.23 1640.88 2141.06C1644.02 2142.9 1646.33 2145.61 1647.81 2149.22L1642.16 2151.09C1641.14 2148.53 1639.49 2146.57 1637.22 2145.22C1634.97 2143.86 1632.29 2143.19 1629.19 2143.19C1624.31 2143.19 1620.52 2144.76 1617.81 2147.91C1615.1 2151.03 1613.75 2155.32 1613.75 2160.78C1613.75 2164.36 1614.39 2167.51 1615.66 2170.22C1616.95 2172.91 1618.76 2175 1621.09 2176.5C1623.45 2177.98 1626.23 2178.72 1629.44 2178.72Z" fill="black"/>
<path d="M1684.16 2178.12V2183H1655.94V2138.97H1661.91V2178.12H1684.16Z" fill="black"/>
<path d="M1697.69 2170.12L1692.62 2183H1686.44L1704.41 2138.97H1711.19L1728.88 2183H1722.78L1717.75 2170.12H1697.69ZM1707.72 2143.47C1707.36 2144.64 1706.94 2145.94 1706.44 2147.38C1705.96 2148.79 1705.51 2150.04 1705.09 2151.12L1699.5 2165.47H1715.97L1710.31 2150.94C1710.02 2150.21 1709.64 2149.18 1709.16 2147.84C1708.68 2146.51 1708.2 2145.05 1707.72 2143.47Z" fill="black"/>
<path d="M1754.41 2178.78C1757.28 2178.78 1759.96 2178.34 1762.44 2177.47C1764.94 2176.59 1766.96 2175.41 1768.5 2173.91V2165.97H1755.34V2160.97H1774V2176.16C1771.67 2178.53 1768.8 2180.38 1765.41 2181.69C1762.03 2182.98 1758.36 2183.62 1754.41 2183.62C1749.82 2183.62 1745.88 2182.7 1742.56 2180.84C1739.25 2178.99 1736.7 2176.35 1734.91 2172.94C1733.11 2169.5 1732.22 2165.45 1732.22 2160.78C1732.22 2153.64 1734.14 2148.1 1737.97 2144.19C1741.8 2140.27 1747.19 2138.31 1754.12 2138.31C1759 2138.31 1762.96 2139.14 1766 2140.78C1769.04 2142.43 1771.39 2145.06 1773.03 2148.69L1767.34 2150.38C1766.09 2147.88 1764.36 2146.05 1762.16 2144.91C1759.97 2143.76 1757.24 2143.19 1753.97 2143.19C1748.89 2143.19 1745 2144.73 1742.31 2147.81C1739.62 2150.88 1738.28 2155.2 1738.28 2160.78C1738.28 2166.34 1739.71 2170.74 1742.56 2173.97C1745.42 2177.18 1749.36 2178.78 1754.41 2178.78Z" fill="black"/>
<path d="M1818.75 2178.12V2183H1784.06V2138.97H1817.47V2143.84H1790.03V2157.97H1815.59V2162.78H1790.03V2178.12H1818.75Z" fill="black"/>
<path d="M1832.06 2153.62V2183H1826.75V2138.97H1834.59L1846.31 2169.5C1846.73 2170.73 1847.12 2172.05 1847.5 2173.47C1847.9 2174.86 1848.16 2175.88 1848.28 2176.5C1848.41 2175.94 1848.61 2175.17 1848.91 2174.19C1849.2 2173.19 1849.49 2172.23 1849.78 2171.31C1850.07 2170.4 1850.28 2169.79 1850.41 2169.5L1861.91 2138.97H1869.56V2183H1864.19V2153.62C1864.19 2152 1864.21 2150.41 1864.25 2148.84C1864.31 2147.28 1864.39 2145.75 1864.47 2144.25C1863.95 2146.1 1863.46 2147.77 1863 2149.25C1862.56 2150.71 1862.14 2151.96 1861.72 2153L1850.34 2183H1846.16L1834.62 2153L1831.84 2144.25C1831.89 2145.81 1831.93 2147.38 1831.97 2148.94C1832.03 2150.5 1832.06 2152.06 1832.06 2153.62Z" fill="black"/>
<path d="M1210.01 1005.18C1205.58 1222.65 1301.29 1281.45 1459.1 1507.79C1460.58 1504.83 1466.38 1494.39 1469.08 1490.78C1630.95 1273.68 1726.12 1212.66 1717.8 1005.18C1711.52 848.372 1635.39 720.779 1459.47 517C1284.66 720.779 1225.98 869.083 1210.01 1005.18Z" fill="#FAA013"/>
<path d="M1432.12 1584.38L1442.84 1618.37C1381.94 1623.4 1275.5 1597.09 1225.98 1584.27C1157.98 1566.51 1097.52 1537.37 1041.12 1501.38C1002.6 1476.81 964.609 1450.91 931.415 1420.25C907.08 1397.78 884.29 1373.77 863.211 1348.4C802.735 1275.62 756.346 1191.61 728 1100.14C741.87 1096.18 756.019 1092.88 770.407 1090.28C776.942 1089.1 783.525 1088.06 790.155 1087.17C816.092 1083.68 842.728 1082.43 869.838 1083.63C877.514 1083.97 885.134 1084.5 892.695 1085.22C905.579 1086.45 918.29 1088.22 930.803 1090.5C949.794 1093.97 968.331 1098.64 986.333 1104.41C1151.22 1157.28 1283 1320.83 1295.96 1493.36C1175.64 1447.51 1068.8 1412.55 977.55 1342.1C952.307 1322.61 927.615 1294.61 905.035 1272.1C893.287 1259.26 868.156 1225.23 857.808 1211.92C868.156 1227.82 893.266 1266.68 905.433 1281.61C929.205 1310.77 955.07 1338.07 982.792 1363.27C1069.2 1441.84 1154.21 1470.44 1272.1 1520.36C1275.81 1521.37 1291.83 1529.61 1295.96 1532.25C1305.84 1538.59 1321.56 1548.09 1342.01 1557.37C1367.41 1568.89 1394.21 1580.06 1432.12 1584.38Z" fill="#1F833D"/>
<path d="M1486.08 1584.16L1475.36 1618.15C1536.27 1623.18 1642.5 1596.87 1692.02 1584.05C1760.02 1566.29 1820.48 1537.15 1876.88 1501.16C1915.4 1476.59 1953.39 1450.69 1986.59 1420.03C2010.92 1397.55 2033.71 1373.55 2054.79 1348.18C2115.26 1275.4 2161.65 1191.38 2190 1099.92C2176.13 1095.96 2161.98 1092.66 2147.59 1090.06C2141.06 1088.88 2134.47 1087.84 2127.85 1086.95C2101.91 1083.45 2075.27 1082.21 2048.16 1083.41C2040.49 1083.75 2032.87 1084.28 2025.31 1085C2012.42 1086.23 1999.71 1087.99 1987.2 1090.28C1968.21 1093.75 1949.67 1098.42 1931.67 1104.19C1766.78 1157.06 1635 1320.61 1622.04 1493.14C1742.36 1447.28 1849.2 1412.33 1940.45 1341.88C1965.69 1322.39 1990.39 1294.39 2012.97 1271.87C2024.71 1259.04 2049.84 1225.01 2060.19 1211.7C2049.84 1227.6 2024.73 1266.46 2012.57 1281.39C1988.8 1310.54 1962.93 1337.85 1935.21 1363.05C1848.8 1441.61 1763.79 1470.21 1645.9 1520.14C1642.19 1521.15 1626.17 1529.39 1622.04 1532.03C1612.16 1538.37 1596.44 1547.87 1575.99 1557.15C1550.59 1568.67 1524 1579.84 1486.08 1584.16Z" fill="#1F833D"/>
<path d="M1244.72 714.973C1239.77 722.74 1228.31 735.762 1219.81 757.504C1087.16 811.965 998.937 900.728 946.77 1034.62H915.726C995.258 803.833 1163.61 731.857 1244.72 714.973Z" fill="#363732"/>
<path d="M1673.28 714.973C1678.23 722.74 1689.69 735.762 1698.19 757.504C1830.84 811.965 1919.06 900.728 1971.23 1034.62H2002.27C1922.74 803.833 1754.39 731.857 1673.28 714.973Z" fill="#363732"/>
</svg>
